# xmcd
#
# Track frame offsets: 
#        150
#        15244
#        26346
#        38817
#        54498
#        80487
#        98685
#        111447
#        128115
#        142461
#        160968
#        175761
#        201030
#        213567
#        230418
#        249239
#        266501
#        279848
#        293557
#        307414
#
# Disc length: 4256 seconds
#
# Revision: 0
# Processed by: cddbd v1.5.2PL0 Copyright (c) Steve Scherf et al.
# Submitted via: ExactAudioCopy v1.1
#
DISCID=18109e14
DTITLE=Various Artist - De Pré Historie - De Jaren '70 Vol. 2 - De Ultieme 10
DTITLE=CD Collectie - 1970
DYEAR=2019
DGENRE=Top 40
TTITLE0=John Lennon and The Plastic Ono Band - Instant Karma! (We All Sh
TTITLE0=ine On)
TTITLE1=Creedence Clearwater Revival - Who'll Stop The Rain
TTITLE2=Christie - Yellow River
TTITLE3=Mungo Jerry - In The Summertime
TTITLE4=Pacific Gas and Electric - Are You Ready
TTITLE5=George Baker Selection - Little Green Bag
TTITLE6=Blue Mink - Good Morning Freedom
TTITLE7=Cat Stevens - Lady D'Arbanville
TTITLE8=Shocking Blue - Mighty Joe
TTITLE9=Earth and Fire - Seasons
TTITLE10=Santana - Black Magic Woman
TTITLE11=The Moody Blues - Question
TTITLE12=Rare Earth - Get Ready
TTITLE13=The Cats - Marian
TTITLE14=The Marmalade - Reflections Of My Life
TTITLE15=Michel Delpech - Wight Is Wight
TTITLE16=B.J. Thomas - Raindrops Keep Fallin' On My Head
TTITLE17=J. Vincent Edwards - Thanks
TTITLE18=Dana - All Kinds Of Everything
TTITLE19=Mr. Bloe - Groovin' With Mr. Bloe
EXTD=
EXTT0=
EXTT1=
EXTT2=
EXTT3=
EXTT4=
EXTT5=
EXTT6=
EXTT7=
EXTT8=
EXTT9=
EXTT10=
EXTT11=
EXTT12=
EXTT13=
EXTT14=
EXTT15=
EXTT16=
EXTT17=
EXTT18=
EXTT19=
PLAYORDER=
